<?xml version="1.0" encoding="UTF-8" standalone="no"?>
<!-- Generator: Adobe Illustrator 19.0.0, SVG Export Plug-In . SVG Version: 6.00 Build 0)  -->

<svg
   xmlns:dc="http://purl.org/dc/elements/1.1/"
   xmlns:cc="http://creativecommons.org/ns#"
   xmlns:rdf="http://www.w3.org/1999/02/22-rdf-syntax-ns#"
   xmlns:svg="http://www.w3.org/2000/svg"
   xmlns="http://www.w3.org/2000/svg"
   xmlns:sodipodi="http://sodipodi.sourceforge.net/DTD/sodipodi-0.dtd"
   xmlns:inkscape="http://www.inkscape.org/namespaces/inkscape"
   version="1.1"
   id="Layer_1"
   x="0px"
   y="0px"
   viewBox="0 0 512.001 512.001"
   style="enable-background:new 0 0 512.001 512.001;"
   xml:space="preserve"
   sodipodi:docname="US-UK-merged.svg"
   inkscape:version="0.92.1 r"><metadata
     id="metadata4094"><rdf:RDF><cc:Work
         rdf:about=""><dc:format>image/svg+xml</dc:format><dc:type
           rdf:resource="http://purl.org/dc/dcmitype/StillImage" /><dc:title></dc:title></cc:Work></rdf:RDF></metadata><defs
     id="defs4092" /><sodipodi:namedview
     pagecolor="#ffffff"
     bordercolor="#666666"
     borderopacity="1"
     objecttolerance="10"
     gridtolerance="10"
     guidetolerance="10"
     inkscape:pageopacity="0"
     inkscape:pageshadow="2"
     inkscape:window-width="1916"
     inkscape:window-height="1041"
     id="namedview4090"
     showgrid="true"
     inkscape:zoom="1.1559517"
     inkscape:cx="269.74312"
     inkscape:cy="228.82279"
     inkscape:window-x="0"
     inkscape:window-y="18"
     inkscape:window-maximized="0"
     inkscape:current-layer="Layer_1"><inkscape:grid
       type="xygrid"
       id="grid4363"
       spacingx="1"
       spacingy="1" /></sodipodi:namedview><g
     transform="translate(0.483,-0.48202344)"
     id="g4202"><path
       inkscape:connector-curvature="0"
       id="path4096"
       d="M 503.172,423.725 H 8.828 C 3.953,423.725 0,419.772 0,414.897 V 97.104 c 0,-4.875 3.953,-8.828 8.828,-8.828 h 494.345 c 4.875,0 8.828,3.953 8.828,8.828 v 317.793 c -10e-4,4.875 -3.954,8.828 -8.829,8.828 z"
       style="fill:#41479b" /><path
       inkscape:connector-curvature="0"
       id="path4098"
       d="m 512,97.104 c 0,-4.875 -3.953,-8.828 -8.828,-8.828 H 463.677 L 300.137,195.423 V 88.276 H 211.861 V 195.423 L 48.322,88.276 H 8.828 C 3.953,88.276 0,92.229 0,97.104 v 22.831 l 140.309,91.927 H 0 v 88.276 H 140.309 L 0,392.066 v 22.831 c 0,4.875 3.953,8.828 8.828,8.828 h 39.495 l 163.54,-107.147 v 107.147 h 88.276 V 316.578 l 163.54,107.147 h 39.495 c 4.875,0 8.828,-3.953 8.828,-8.828 V 392.066 L 371.693,300.139 H 512 V 211.863 H 371.691 L 512,119.935 Z"
       style="fill:#f5f5f5" /><g
       id="g4110"><polygon
         id="polygon4100"
         points="229.517,282.483 229.517,423.725 282.483,423.725 282.483,282.483 512,282.483 512,229.518 282.483,229.518 282.483,88.276 229.517,88.276 229.517,229.518 0,229.518 0,282.483 "
         style="fill:#ff4b55" /><path
         inkscape:connector-curvature="0"
         id="path4102"
         d="M 178.948,300.138 0.25,416.135 c 0.625,4.263 4.14,7.59 8.577,7.59 h 12.159 l 190.39,-123.586 h -32.428 z"
         style="fill:#ff4b55" /><path
         inkscape:connector-curvature="0"
         id="path4104"
         d="M 346.388,300.138 H 313.96 l 190.113,123.404 c 4.431,-0.472 7.928,-4.09 7.928,-8.646 v -7.258 z"
         style="fill:#ff4b55" /><path
         inkscape:connector-curvature="0"
         id="path4106"
         d="m 0,106.849 161.779,105.014 h 32.428 L 5.143,89.137 C 2.123,90.54 0,93.555 0,97.104 Z"
         style="fill:#ff4b55" /><path
         inkscape:connector-curvature="0"
         id="path4108"
         d="M 332.566,211.863 511.693,95.586 c -0.744,-4.122 -4.184,-7.309 -8.521,-7.309 H 490.525 L 300.138,211.863 Z"
         style="fill:#ff4b55" /></g><g
       id="g4112" /><g
       id="g4114" /><g
       id="g4116" /><g
       id="g4118" /><g
       id="g4120" /><g
       id="g4122" /><g
       id="g4124" /><g
       id="g4126" /><g
       id="g4128" /><g
       id="g4130" /><g
       id="g4132" /><g
       id="g4134" /><g
       id="g4136" /><g
       id="g4138" /><g
       id="g4140" /></g><path
     style="fill:#f5f5f5;fill-opacity:1"
     d="M 88.277254 423.725 L 8.828 423.725 C 3.953 423.725 0 419.772 0 414.897 L 0 97.104 C 0 92.229 3.953 88.276 8.828 88.276 L 423.72388 88.276 "
     id="path3955" /><path
     style="fill:#ff4b55;fill-opacity:1"
     d="M 397.91992 114.081 L 0 114.081 L 0 97.104 C 0 92.229 3.953 88.276 8.828 88.276 L 423.72388 88.276 "
     id="path3957" /><path
     style="fill:#ff4b55;fill-opacity:1"
     d="M 294.70508 217.295 L 0 217.295 L 0 191.491 L 0 191.491 L 320.50977 191.491 "
     id="path5291" /><path
     style="fill:#ff4b55;fill-opacity:1"
     d="M 346.31445 165.685 L 0 165.685 L 0 139.881 L 0 139.881 L 372.11914 139.881 "
     id="path5294" /><path
     style="fill:#ff4b55;fill-opacity:1"
     d="M 243.09955 268.903 L 8.828 268.903 C 3.953 268.903 0 264.95 0 260.075 L 0 243.098 L 268.90234 243.098 "
     id="path3963" /><path
     style="fill:#ff4b55;fill-opacity:1"
     d="M 139.87695 372.12502 L 0 372.12502 L 0 346.32101 L 0 346.32101 L 165.68164 346.32101 "
     id="path5282" /><path
     style="fill:#ff4b55;fill-opacity:1"
     d="M 88.277254 423.725 L 8.828 423.725 C 3.953 423.725 0 419.772 0 414.897 L 0 397.921 L 114.08008 397.921 "
     id="path3967" /><path
     style="fill:#ff4b55;fill-opacity:1"
     d="M 191.48633 320.515 L 0 320.515 L 0 294.711 L 0 294.711 L 217.29102 294.711 "
     id="path5285" /><path
     inkscape:connector-curvature="0"
     style="fill:#41479b"
     d="M 229.517,88.277 H 8.828 C 3.953,88.277 0,92.229 0,97.104 v 162.97 c 0,4.875 3.953,8.828 8.828,8.828 h 220.69 c 4.875,0 8.828,-3.953 8.828,-8.828 V 97.104 c -0.001,-4.875 -3.954,-8.827 -8.829,-8.827 z"
     id="path3973" /><g
     id="g4057"><path
       inkscape:connector-curvature="0"
       style="fill:#f5f5f5"
       d="m 24.789,108.538 1.954,5.86 6.177,0.047 c 0.8,0.007 1.131,1.027 0.488,1.502 l -4.969,3.67 1.864,5.889 c 0.242,0.762 -0.627,1.394 -1.278,0.928 L 24,122.843 l -5.025,3.592 c -0.651,0.465 -1.518,-0.166 -1.278,-0.928 l 1.864,-5.889 -4.969,-3.67 c -0.643,-0.476 -0.312,-1.495 0.488,-1.502 l 6.177,-0.047 1.954,-5.86 c 0.252,-0.76 1.324,-0.76 1.578,-0.001 z"
       id="path3975" /><path
       inkscape:connector-curvature="0"
       style="fill:#f5f5f5"
       d="m 24.789,139.192 1.954,5.86 6.177,0.047 c 0.8,0.007 1.131,1.027 0.488,1.502 l -4.969,3.67 1.864,5.889 c 0.242,0.762 -0.627,1.394 -1.278,0.928 L 24,153.497 l -5.025,3.592 c -0.651,0.465 -1.518,-0.166 -1.278,-0.928 l 1.864,-5.889 -4.969,-3.67 c -0.643,-0.476 -0.312,-1.495 0.488,-1.502 l 6.177,-0.047 1.954,-5.86 c 0.252,-0.759 1.324,-0.759 1.578,-0.001 z"
       id="path3977" /><path
       inkscape:connector-curvature="0"
       style="fill:#f5f5f5"
       d="m 24.789,169.846 1.954,5.86 6.177,0.047 c 0.8,0.007 1.131,1.027 0.488,1.502 l -4.969,3.67 1.864,5.889 c 0.242,0.762 -0.627,1.394 -1.278,0.928 L 24,184.151 l -5.025,3.592 c -0.651,0.465 -1.518,-0.166 -1.278,-0.928 l 1.864,-5.889 -4.969,-3.67 c -0.643,-0.476 -0.312,-1.495 0.488,-1.502 l 6.177,-0.047 1.954,-5.86 c 0.252,-0.759 1.324,-0.759 1.578,-0.001 z"
       id="path3979" /><path
       inkscape:connector-curvature="0"
       style="fill:#f5f5f5"
       d="m 24.789,200.501 1.954,5.86 6.177,0.047 c 0.8,0.007 1.131,1.027 0.488,1.502 l -4.969,3.67 1.864,5.889 c 0.242,0.762 -0.627,1.394 -1.278,0.928 L 24,214.806 l -5.025,3.592 c -0.651,0.465 -1.518,-0.166 -1.278,-0.928 l 1.864,-5.889 -4.969,-3.67 c -0.643,-0.476 -0.312,-1.495 0.488,-1.502 l 6.177,-0.047 1.954,-5.86 c 0.252,-0.76 1.324,-0.76 1.578,-0.001 z"
       id="path3981" /><path
       inkscape:connector-curvature="0"
       style="fill:#f5f5f5"
       d="m 24.789,231.155 1.954,5.86 6.177,0.047 c 0.8,0.007 1.131,1.027 0.488,1.502 l -4.969,3.67 1.864,5.889 c 0.242,0.762 -0.627,1.394 -1.278,0.928 L 24,245.46 l -5.025,3.592 c -0.651,0.465 -1.518,-0.166 -1.278,-0.928 l 1.864,-5.889 -4.969,-3.67 c -0.643,-0.476 -0.312,-1.495 0.488,-1.502 l 6.177,-0.047 1.954,-5.86 c 0.252,-0.761 1.324,-0.761 1.578,-0.001 z"
       id="path3983" /><path
       inkscape:connector-curvature="0"
       style="fill:#f5f5f5"
       d="m 48.582,123.567 1.954,5.86 6.177,0.047 c 0.8,0.007 1.131,1.027 0.488,1.502 l -4.969,3.67 1.864,5.889 c 0.242,0.762 -0.627,1.394 -1.278,0.928 l -5.025,-3.592 -5.025,3.592 c -0.651,0.465 -1.518,-0.166 -1.278,-0.928 l 1.864,-5.889 -4.969,-3.67 c -0.643,-0.476 -0.312,-1.495 0.488,-1.502 l 6.177,-0.047 1.954,-5.86 c 0.251,-0.758 1.325,-0.758 1.578,0 z"
       id="path3985" /><path
       inkscape:connector-curvature="0"
       style="fill:#f5f5f5"
       d="m 48.582,154.222 1.954,5.86 6.177,0.047 c 0.8,0.007 1.131,1.027 0.488,1.502 l -4.969,3.67 1.864,5.889 c 0.242,0.762 -0.627,1.394 -1.278,0.928 l -5.025,-3.592 -5.025,3.592 c -0.651,0.465 -1.518,-0.165 -1.278,-0.928 l 1.864,-5.889 -4.969,-3.67 c -0.643,-0.476 -0.312,-1.495 0.488,-1.502 l 6.177,-0.047 1.954,-5.86 c 0.251,-0.759 1.325,-0.759 1.578,0 z"
       id="path3987" /><path
       inkscape:connector-curvature="0"
       style="fill:#f5f5f5"
       d="m 48.582,184.876 1.954,5.86 6.177,0.047 c 0.8,0.007 1.131,1.027 0.488,1.502 l -4.969,3.67 1.864,5.889 c 0.242,0.762 -0.627,1.394 -1.278,0.928 l -5.025,-3.592 -5.025,3.592 c -0.651,0.465 -1.518,-0.166 -1.278,-0.928 l 1.864,-5.889 -4.969,-3.67 c -0.643,-0.476 -0.312,-1.495 0.488,-1.502 l 6.177,-0.047 1.954,-5.86 c 0.251,-0.759 1.325,-0.759 1.578,0 z"
       id="path3989" /><path
       inkscape:connector-curvature="0"
       style="fill:#f5f5f5"
       d="m 48.582,215.53 1.954,5.86 6.177,0.047 c 0.8,0.007 1.131,1.027 0.488,1.502 l -4.969,3.67 1.864,5.889 c 0.242,0.762 -0.627,1.394 -1.278,0.928 l -5.025,-3.592 -5.025,3.592 c -0.651,0.465 -1.518,-0.166 -1.278,-0.928 l 1.864,-5.889 -4.969,-3.67 c -0.643,-0.476 -0.312,-1.495 0.488,-1.502 l 6.177,-0.047 1.954,-5.86 c 0.251,-0.758 1.325,-0.758 1.578,0 z"
       id="path3991" /><path
       inkscape:connector-curvature="0"
       style="fill:#f5f5f5"
       d="m 72.375,108.538 1.954,5.86 6.177,0.047 c 0.8,0.007 1.131,1.027 0.488,1.502 l -4.969,3.67 1.864,5.889 c 0.242,0.762 -0.627,1.394 -1.278,0.928 l -5.025,-3.592 -5.025,3.592 c -0.651,0.465 -1.518,-0.166 -1.278,-0.928 l 1.864,-5.889 -4.969,-3.67 c -0.643,-0.476 -0.312,-1.495 0.488,-1.502 l 6.177,-0.047 1.954,-5.86 c 0.252,-0.759 1.325,-0.759 1.578,0 z"
       id="path3993" /><path
       inkscape:connector-curvature="0"
       style="fill:#f5f5f5"
       d="m 72.375,139.192 1.954,5.86 6.177,0.047 c 0.8,0.007 1.131,1.027 0.488,1.502 l -4.969,3.67 1.864,5.889 c 0.242,0.762 -0.627,1.394 -1.278,0.928 l -5.025,-3.592 -5.025,3.592 c -0.651,0.465 -1.518,-0.166 -1.278,-0.928 l 1.864,-5.889 -4.969,-3.67 c -0.643,-0.476 -0.312,-1.495 0.488,-1.502 l 6.177,-0.047 1.954,-5.86 c 0.252,-0.758 1.325,-0.758 1.578,0 z"
       id="path3995" /><path
       inkscape:connector-curvature="0"
       style="fill:#f5f5f5"
       d="m 72.375,169.846 1.954,5.86 6.177,0.047 c 0.8,0.007 1.131,1.027 0.488,1.502 l -4.969,3.67 1.864,5.889 c 0.242,0.762 -0.627,1.394 -1.278,0.928 l -5.025,-3.592 -5.025,3.592 c -0.651,0.465 -1.518,-0.166 -1.278,-0.928 l 1.864,-5.889 -4.969,-3.67 c -0.643,-0.476 -0.312,-1.495 0.488,-1.502 l 6.177,-0.047 1.954,-5.86 c 0.252,-0.758 1.325,-0.758 1.578,0 z"
       id="path3997" /><path
       inkscape:connector-curvature="0"
       style="fill:#f5f5f5"
       d="m 72.375,200.501 1.954,5.86 6.177,0.047 c 0.8,0.007 1.131,1.027 0.488,1.502 l -4.969,3.67 1.864,5.889 c 0.242,0.762 -0.627,1.394 -1.278,0.928 l -5.025,-3.592 -5.025,3.592 c -0.651,0.465 -1.518,-0.166 -1.278,-0.928 l 1.864,-5.889 -4.969,-3.67 c -0.643,-0.476 -0.312,-1.495 0.488,-1.502 l 6.177,-0.047 1.954,-5.86 c 0.252,-0.759 1.325,-0.759 1.578,0 z"
       id="path3999" /><path
       inkscape:connector-curvature="0"
       style="fill:#f5f5f5"
       d="m 72.375,231.155 1.954,5.86 6.177,0.047 c 0.8,0.007 1.131,1.027 0.488,1.502 l -4.969,3.67 1.864,5.889 c 0.242,0.762 -0.627,1.394 -1.278,0.928 l -5.025,-3.592 -5.025,3.592 c -0.651,0.465 -1.518,-0.166 -1.278,-0.928 l 1.864,-5.889 -4.969,-3.67 c -0.643,-0.476 -0.312,-1.495 0.488,-1.502 l 6.177,-0.047 1.954,-5.86 c 0.252,-0.76 1.325,-0.76 1.578,0 z"
       id="path4001" /><path
       inkscape:connector-curvature="0"
       style="fill:#f5f5f5"
       d="m 96.169,123.567 1.954,5.86 6.177,0.047 c 0.8,0.007 1.131,1.027 0.488,1.502 l -4.969,3.67 1.864,5.889 c 0.242,0.762 -0.627,1.394 -1.278,0.928 l -5.025,-3.592 -5.025,3.592 c -0.651,0.465 -1.518,-0.166 -1.278,-0.928 l 1.864,-5.889 -4.969,-3.67 c -0.643,-0.476 -0.312,-1.495 0.488,-1.502 l 6.177,-0.047 1.954,-5.86 c 0.251,-0.758 1.325,-0.758 1.578,0 z"
       id="path4003" /><path
       inkscape:connector-curvature="0"
       style="fill:#f5f5f5"
       d="m 96.169,154.222 1.954,5.86 6.177,0.047 c 0.8,0.007 1.131,1.027 0.488,1.502 l -4.969,3.67 1.864,5.889 c 0.242,0.762 -0.627,1.394 -1.278,0.928 l -5.025,-3.592 -5.025,3.592 c -0.651,0.465 -1.518,-0.165 -1.278,-0.928 l 1.864,-5.889 -4.969,-3.67 c -0.643,-0.476 -0.312,-1.495 0.488,-1.502 l 6.177,-0.047 1.954,-5.86 c 0.251,-0.759 1.325,-0.759 1.578,0 z"
       id="path4005" /><path
       inkscape:connector-curvature="0"
       style="fill:#f5f5f5"
       d="m 96.169,184.876 1.954,5.86 6.177,0.047 c 0.8,0.007 1.131,1.027 0.488,1.502 l -4.969,3.67 1.864,5.889 c 0.242,0.762 -0.627,1.394 -1.278,0.928 l -5.025,-3.592 -5.025,3.592 c -0.651,0.465 -1.518,-0.166 -1.278,-0.928 l 1.864,-5.889 -4.969,-3.67 c -0.643,-0.476 -0.312,-1.495 0.488,-1.502 l 6.177,-0.047 1.954,-5.86 c 0.251,-0.759 1.325,-0.759 1.578,0 z"
       id="path4007" /><path
       inkscape:connector-curvature="0"
       style="fill:#f5f5f5"
       d="m 96.169,215.53 1.954,5.86 6.177,0.047 c 0.8,0.007 1.131,1.027 0.488,1.502 l -4.969,3.67 1.864,5.889 c 0.242,0.762 -0.627,1.394 -1.278,0.928 l -5.025,-3.592 -5.025,3.592 c -0.651,0.465 -1.518,-0.166 -1.278,-0.928 l 1.864,-5.889 -4.969,-3.67 c -0.643,-0.476 -0.312,-1.495 0.488,-1.502 l 6.177,-0.047 1.954,-5.86 c 0.251,-0.758 1.325,-0.758 1.578,0 z"
       id="path4009" /><path
       inkscape:connector-curvature="0"
       style="fill:#f5f5f5"
       d="m 119.962,108.538 1.954,5.86 6.177,0.047 c 0.8,0.007 1.131,1.027 0.488,1.502 l -4.969,3.67 1.864,5.889 c 0.242,0.762 -0.627,1.394 -1.278,0.928 l -5.026,-3.592 -5.025,3.592 c -0.651,0.465 -1.518,-0.166 -1.278,-0.928 l 1.864,-5.889 -4.969,-3.67 c -0.643,-0.476 -0.312,-1.495 0.488,-1.502 l 6.177,-0.047 1.954,-5.86 c 0.253,-0.759 1.326,-0.759 1.579,0 z"
       id="path4011" /><path
       inkscape:connector-curvature="0"
       style="fill:#f5f5f5"
       d="m 119.962,139.192 1.954,5.86 6.177,0.047 c 0.8,0.007 1.131,1.027 0.488,1.502 l -4.969,3.67 1.864,5.889 c 0.242,0.762 -0.627,1.394 -1.278,0.928 l -5.026,-3.592 -5.025,3.592 c -0.651,0.465 -1.518,-0.166 -1.278,-0.928 l 1.864,-5.889 -4.969,-3.67 c -0.643,-0.476 -0.312,-1.495 0.488,-1.502 l 6.177,-0.047 1.954,-5.86 c 0.253,-0.758 1.326,-0.758 1.579,0 z"
       id="path4013" /><path
       inkscape:connector-curvature="0"
       style="fill:#f5f5f5"
       d="m 119.962,169.846 1.954,5.86 6.177,0.047 c 0.8,0.007 1.131,1.027 0.488,1.502 l -4.969,3.67 1.864,5.889 c 0.242,0.762 -0.627,1.394 -1.278,0.928 l -5.026,-3.592 -5.025,3.592 c -0.651,0.465 -1.518,-0.166 -1.278,-0.928 l 1.864,-5.889 -4.969,-3.67 c -0.643,-0.476 -0.312,-1.495 0.488,-1.502 l 6.177,-0.047 1.954,-5.86 c 0.253,-0.758 1.326,-0.758 1.579,0 z"
       id="path4015" /><path
       inkscape:connector-curvature="0"
       style="fill:#f5f5f5"
       d="m 119.962,200.501 1.954,5.86 6.177,0.047 c 0.8,0.007 1.131,1.027 0.488,1.502 l -4.969,3.67 1.864,5.889 c 0.242,0.762 -0.627,1.394 -1.278,0.928 l -5.026,-3.592 -5.025,3.592 c -0.651,0.465 -1.518,-0.166 -1.278,-0.928 l 1.864,-5.889 -4.969,-3.67 c -0.643,-0.476 -0.312,-1.495 0.488,-1.502 l 6.177,-0.047 1.954,-5.86 c 0.253,-0.759 1.326,-0.759 1.579,0 z"
       id="path4017" /><path
       inkscape:connector-curvature="0"
       style="fill:#f5f5f5"
       d="m 119.962,231.155 1.954,5.86 6.177,0.047 c 0.8,0.007 1.131,1.027 0.488,1.502 l -4.969,3.67 1.864,5.889 c 0.242,0.762 -0.627,1.394 -1.278,0.928 l -5.026,-3.592 -5.025,3.592 c -0.651,0.465 -1.518,-0.166 -1.278,-0.928 l 1.864,-5.889 -4.969,-3.67 c -0.643,-0.476 -0.312,-1.495 0.488,-1.502 l 6.177,-0.047 1.954,-5.86 c 0.253,-0.76 1.326,-0.76 1.579,0 z"
       id="path4019" /><path
       inkscape:connector-curvature="0"
       style="fill:#f5f5f5"
       d="m 143.755,123.567 1.954,5.86 6.177,0.047 c 0.8,0.007 1.131,1.027 0.488,1.502 l -4.969,3.67 1.864,5.889 c 0.242,0.762 -0.627,1.394 -1.278,0.928 l -5.025,-3.592 -5.025,3.592 c -0.651,0.465 -1.518,-0.166 -1.278,-0.928 l 1.864,-5.889 -4.969,-3.67 c -0.643,-0.476 -0.312,-1.495 0.488,-1.502 l 6.177,-0.047 1.954,-5.86 c 0.253,-0.758 1.325,-0.758 1.578,0 z"
       id="path4021" /><path
       inkscape:connector-curvature="0"
       style="fill:#f5f5f5"
       d="m 143.755,154.222 1.954,5.86 6.177,0.047 c 0.8,0.007 1.131,1.027 0.488,1.502 l -4.969,3.67 1.864,5.889 c 0.242,0.762 -0.627,1.394 -1.278,0.928 l -5.025,-3.592 -5.025,3.592 c -0.651,0.465 -1.518,-0.165 -1.278,-0.928 l 1.864,-5.889 -4.969,-3.67 c -0.643,-0.476 -0.312,-1.495 0.488,-1.502 l 6.177,-0.047 1.954,-5.86 c 0.253,-0.759 1.325,-0.759 1.578,0 z"
       id="path4023" /><path
       inkscape:connector-curvature="0"
       style="fill:#f5f5f5"
       d="m 143.755,184.876 1.954,5.86 6.177,0.047 c 0.8,0.007 1.131,1.027 0.488,1.502 l -4.969,3.67 1.864,5.889 c 0.242,0.762 -0.627,1.394 -1.278,0.928 l -5.025,-3.592 -5.025,3.592 c -0.651,0.465 -1.518,-0.166 -1.278,-0.928 l 1.864,-5.889 -4.969,-3.67 c -0.643,-0.476 -0.312,-1.495 0.488,-1.502 l 6.177,-0.047 1.954,-5.86 c 0.253,-0.759 1.325,-0.759 1.578,0 z"
       id="path4025" /><path
       inkscape:connector-curvature="0"
       style="fill:#f5f5f5"
       d="m 143.755,215.53 1.954,5.86 6.177,0.047 c 0.8,0.007 1.131,1.027 0.488,1.502 l -4.969,3.67 1.864,5.889 c 0.242,0.762 -0.627,1.394 -1.278,0.928 l -5.025,-3.592 -5.025,3.592 c -0.651,0.465 -1.518,-0.166 -1.278,-0.928 l 1.864,-5.889 -4.969,-3.67 c -0.643,-0.476 -0.312,-1.495 0.488,-1.502 l 6.177,-0.047 1.954,-5.86 c 0.253,-0.758 1.325,-0.758 1.578,0 z"
       id="path4027" /><path
       inkscape:connector-curvature="0"
       style="fill:#f5f5f5"
       d="m 167.549,108.538 1.954,5.86 6.177,0.047 c 0.8,0.007 1.131,1.027 0.488,1.502 l -4.969,3.67 1.864,5.889 c 0.242,0.762 -0.627,1.394 -1.278,0.928 l -5.025,-3.592 -5.025,3.592 c -0.651,0.465 -1.518,-0.166 -1.278,-0.928 l 1.864,-5.889 -4.969,-3.67 c -0.643,-0.476 -0.312,-1.495 0.488,-1.502 l 6.177,-0.047 1.954,-5.86 c 0.251,-0.759 1.325,-0.759 1.578,0 z"
       id="path4029" /><path
       inkscape:connector-curvature="0"
       style="fill:#f5f5f5"
       d="m 167.549,139.192 1.954,5.86 6.177,0.047 c 0.8,0.007 1.131,1.027 0.488,1.502 l -4.969,3.67 1.864,5.889 c 0.242,0.762 -0.627,1.394 -1.278,0.928 l -5.025,-3.592 -5.025,3.592 c -0.651,0.465 -1.518,-0.166 -1.278,-0.928 l 1.864,-5.889 -4.969,-3.67 c -0.643,-0.476 -0.312,-1.495 0.488,-1.502 l 6.177,-0.047 1.954,-5.86 c 0.251,-0.758 1.325,-0.758 1.578,0 z"
       id="path4031" /><path
       inkscape:connector-curvature="0"
       style="fill:#f5f5f5"
       d="m 167.549,169.846 1.954,5.86 6.177,0.047 c 0.8,0.007 1.131,1.027 0.488,1.502 l -4.969,3.67 1.864,5.889 c 0.242,0.762 -0.627,1.394 -1.278,0.928 l -5.025,-3.592 -5.025,3.592 c -0.651,0.465 -1.518,-0.166 -1.278,-0.928 l 1.864,-5.889 -4.969,-3.67 c -0.643,-0.476 -0.312,-1.495 0.488,-1.502 l 6.177,-0.047 1.954,-5.86 c 0.251,-0.758 1.325,-0.758 1.578,0 z"
       id="path4033" /><path
       inkscape:connector-curvature="0"
       style="fill:#f5f5f5"
       d="m 167.549,200.501 1.954,5.86 6.177,0.047 c 0.8,0.007 1.131,1.027 0.488,1.502 l -4.969,3.67 1.864,5.889 c 0.242,0.762 -0.627,1.394 -1.278,0.928 l -5.025,-3.592 -5.025,3.592 c -0.651,0.465 -1.518,-0.166 -1.278,-0.928 l 1.864,-5.889 -4.969,-3.67 c -0.643,-0.476 -0.312,-1.495 0.488,-1.502 l 6.177,-0.047 1.954,-5.86 c 0.251,-0.759 1.325,-0.759 1.578,0 z"
       id="path4035" /><path
       inkscape:connector-curvature="0"
       style="fill:#f5f5f5"
       d="m 167.549,231.155 1.954,5.86 6.177,0.047 c 0.8,0.007 1.131,1.027 0.488,1.502 l -4.969,3.67 1.864,5.889 c 0.242,0.762 -0.627,1.394 -1.278,0.928 l -5.025,-3.592 -5.025,3.592 c -0.651,0.465 -1.518,-0.166 -1.278,-0.928 l 1.864,-5.889 -4.969,-3.67 c -0.643,-0.476 -0.312,-1.495 0.488,-1.502 l 6.177,-0.047 1.954,-5.86 c 0.251,-0.76 1.325,-0.76 1.578,0 z"
       id="path4037" /><path
       inkscape:connector-curvature="0"
       style="fill:#f5f5f5"
       d="m 191.342,123.567 1.954,5.86 6.177,0.047 c 0.8,0.007 1.131,1.027 0.488,1.502 l -4.969,3.67 1.864,5.889 c 0.242,0.762 -0.627,1.394 -1.278,0.928 l -5.025,-3.592 -5.025,3.592 c -0.651,0.465 -1.518,-0.166 -1.278,-0.928 l 1.864,-5.889 -4.969,-3.67 c -0.643,-0.476 -0.312,-1.495 0.488,-1.502 l 6.177,-0.047 1.954,-5.86 c 0.252,-0.758 1.326,-0.758 1.578,0 z"
       id="path4039" /><path
       inkscape:connector-curvature="0"
       style="fill:#f5f5f5"
       d="m 191.342,154.222 1.954,5.86 6.177,0.047 c 0.8,0.007 1.131,1.027 0.488,1.502 l -4.969,3.67 1.864,5.889 c 0.242,0.762 -0.627,1.394 -1.278,0.928 l -5.025,-3.592 -5.025,3.592 c -0.651,0.465 -1.518,-0.165 -1.278,-0.928 l 1.864,-5.889 -4.969,-3.67 c -0.643,-0.476 -0.312,-1.495 0.488,-1.502 l 6.177,-0.047 1.954,-5.86 c 0.252,-0.759 1.326,-0.759 1.578,0 z"
       id="path4041" /><path
       inkscape:connector-curvature="0"
       style="fill:#f5f5f5"
       d="m 191.342,184.876 1.954,5.86 6.177,0.047 c 0.8,0.007 1.131,1.027 0.488,1.502 l -4.969,3.67 1.864,5.889 c 0.242,0.762 -0.627,1.394 -1.278,0.928 l -5.025,-3.592 -5.025,3.592 c -0.651,0.465 -1.518,-0.166 -1.278,-0.928 l 1.864,-5.889 -4.969,-3.67 c -0.643,-0.476 -0.312,-1.495 0.488,-1.502 l 6.177,-0.047 1.954,-5.86 c 0.252,-0.759 1.326,-0.759 1.578,0 z"
       id="path4043" /><path
       inkscape:connector-curvature="0"
       style="fill:#f5f5f5"
       d="m 191.342,215.53 1.954,5.86 6.177,0.047 c 0.8,0.007 1.131,1.027 0.488,1.502 l -4.969,3.67 1.864,5.889 c 0.242,0.762 -0.627,1.394 -1.278,0.928 l -5.025,-3.592 -5.025,3.592 c -0.651,0.465 -1.518,-0.166 -1.278,-0.928 l 1.864,-5.889 -4.969,-3.67 c -0.643,-0.476 -0.312,-1.495 0.488,-1.502 l 6.177,-0.047 1.954,-5.86 c 0.252,-0.758 1.326,-0.758 1.578,0 z"
       id="path4045" /><path
       inkscape:connector-curvature="0"
       style="fill:#f5f5f5"
       d="m 215.136,108.538 1.954,5.86 6.177,0.047 c 0.8,0.007 1.131,1.027 0.488,1.502 l -4.969,3.67 1.864,5.889 c 0.242,0.762 -0.627,1.394 -1.278,0.928 l -5.025,-3.592 -5.025,3.592 c -0.651,0.465 -1.518,-0.166 -1.278,-0.928 l 1.864,-5.889 -4.969,-3.67 c -0.643,-0.476 -0.312,-1.495 0.488,-1.502 l 6.177,-0.047 1.954,-5.86 c 0.252,-0.759 1.324,-0.759 1.578,0 z"
       id="path4047" /><path
       inkscape:connector-curvature="0"
       style="fill:#f5f5f5"
       d="m 215.136,139.192 1.954,5.86 6.177,0.047 c 0.8,0.007 1.131,1.027 0.488,1.502 l -4.969,3.67 1.864,5.889 c 0.242,0.762 -0.627,1.394 -1.278,0.928 l -5.025,-3.592 -5.025,3.592 c -0.651,0.465 -1.518,-0.166 -1.278,-0.928 l 1.864,-5.889 -4.969,-3.67 c -0.643,-0.476 -0.312,-1.495 0.488,-1.502 l 6.177,-0.047 1.954,-5.86 c 0.252,-0.758 1.324,-0.758 1.578,0 z"
       id="path4049" /><path
       inkscape:connector-curvature="0"
       style="fill:#f5f5f5"
       d="m 215.136,169.846 1.954,5.86 6.177,0.047 c 0.8,0.007 1.131,1.027 0.488,1.502 l -4.969,3.67 1.864,5.889 c 0.242,0.762 -0.627,1.394 -1.278,0.928 l -5.025,-3.592 -5.025,3.592 c -0.651,0.465 -1.518,-0.166 -1.278,-0.928 l 1.864,-5.889 -4.969,-3.67 c -0.643,-0.476 -0.312,-1.495 0.488,-1.502 l 6.177,-0.047 1.954,-5.86 c 0.252,-0.758 1.324,-0.758 1.578,0 z"
       id="path4051" /><path
       inkscape:connector-curvature="0"
       style="fill:#f5f5f5"
       d="m 215.136,200.501 1.954,5.86 6.177,0.047 c 0.8,0.007 1.131,1.027 0.488,1.502 l -4.969,3.67 1.864,5.889 c 0.242,0.762 -0.627,1.394 -1.278,0.928 l -5.025,-3.592 -5.025,3.592 c -0.651,0.465 -1.518,-0.166 -1.278,-0.928 l 1.864,-5.889 -4.969,-3.67 c -0.643,-0.476 -0.312,-1.495 0.488,-1.502 l 6.177,-0.047 1.954,-5.86 c 0.252,-0.759 1.324,-0.759 1.578,0 z"
       id="path4053" /><path
       inkscape:connector-curvature="0"
       style="fill:#f5f5f5"
       d="m 215.136,231.155 1.954,5.86 6.177,0.047 c 0.8,0.007 1.131,1.027 0.488,1.502 l -4.969,3.67 1.864,5.889 c 0.242,0.762 -0.627,1.394 -1.278,0.928 l -5.025,-3.592 -5.025,3.592 c -0.651,0.465 -1.518,-0.166 -1.278,-0.928 l 1.864,-5.889 -4.969,-3.67 c -0.643,-0.476 -0.312,-1.495 0.488,-1.502 l 6.177,-0.047 1.954,-5.86 c 0.252,-0.76 1.324,-0.76 1.578,0 z"
       id="path4055" /></g><g
     id="g4059" /><g
     id="g4061" /><g
     id="g4063" /><g
     id="g4065" /><g
     id="g4067" /><g
     id="g4069" /><g
     id="g4071" /><g
     id="g4073" /><g
     id="g4075" /><g
     id="g4077" /><g
     id="g4079" /><g
     id="g4081" /><g
     id="g4083" /><g
     id="g4085" /><g
     id="g4087" /></svg>